<?xml version="1.0" encoding="UTF-8"?>
<svg width="70" height="70" viewBox="0 0 70 70" fill="none" xmlns="http://www.w3.org/2000/svg">
  <circle cx="35" cy="35" r="35" fill="#2563EB" />
  <g transform="translate(18, 12)">
    <rect x="8" y="8" width="18" height="38" fill="white" rx="1" />
    <rect x="0" y="16" width="7" height="30" fill="white" opacity="0.8" rx="1" />
    <rect x="27" y="20" width="7" height="26" fill="white" opacity="0.8" rx="1" />
    <rect x="11" y="12" width="3" height="3" fill="#2563EB" rx="0.5" />
    <rect x="19" y="12" width="3" height="3" fill="#2563EB" rx="0.5" />
    <rect x="11" y="18" width="3" height="3" fill="#2563EB" rx="0.5" />
    <rect x="19" y="18" width="3" height="3" fill="#2563EB" rx="0.5" />
    <rect x="11" y="24" width="3" height="3" fill="#2563EB" rx="0.5" />
    <rect x="19" y="24" width="3" height="3" fill="#2563EB" rx="0.5" />
    <rect x="11" y="30" width="3" height="3" fill="#2563EB" rx="0.5" />
    <rect x="19" y="30" width="3" height="3" fill="#2563EB" rx="0.5" />
    <rect x="14" y="38" width="6" height="8" fill="#2563EB" rx="0.5" />
  </g>
</svg>